<?xml version="1.0" encoding="UTF-8" standalone="no"?>
<svg
   xmlns:dc="http://purl.org/dc/elements/1.1/"
   xmlns:cc="http://creativecommons.org/ns#"
   xmlns:rdf="http://www.w3.org/1999/02/22-rdf-syntax-ns#"
   xmlns:svg="http://www.w3.org/2000/svg"
   xmlns="http://www.w3.org/2000/svg"
   xmlns:sodipodi="http://sodipodi.sourceforge.net/DTD/sodipodi-0.dtd"
   xmlns:inkscape="http://www.inkscape.org/namespaces/inkscape"
   width="261.93036"
   height="449.39029"
   viewBox="0 0 69.302407 118.90118"
   version="1.1"
   id="svg911"
   sodipodi:docname="drawing.svg"
   inkscape:version="1.0.2-2 (e86c870879, 2021-01-15)">
  <defs
     id="defs905">
    <clipPath
       clipPathUnits="userSpaceOnUse"
       id="clipPath1657">
      <rect
         style="fill:#3f4d79;fill-opacity:1;stroke:#3f4d79;stroke-width:0.264583"
         id="rect1659"
         width="69.302406"
         height="120.48654"
         x="139.9637"
         y="19.930103" />
    </clipPath>
  </defs>
  <sodipodi:namedview
     id="base"
     pagecolor="#ffffff"
     bordercolor="#666666"
     borderopacity="1.0"
     inkscape:pageopacity="0.0"
     inkscape:pageshadow="2"
     inkscape:zoom="0.29206235"
     inkscape:cx="1551.0387"
     inkscape:cy="282.39797"
     inkscape:document-units="px"
     inkscape:current-layer="g1635"
     inkscape:document-rotation="0"
     showgrid="false"
     inkscape:window-width="1366"
     inkscape:window-height="715"
     inkscape:window-x="-8"
     inkscape:window-y="-8"
     inkscape:window-maximized="1"
     units="px"
     inkscape:pagecheckerboard="true"
     fit-margin-top="0"
     fit-margin-left="0"
     fit-margin-right="0"
     fit-margin-bottom="0" />
  <metadata
     id="metadata908">
    <rdf:RDF>
      <cc:Work
         rdf:about="">
        <dc:format>image/svg+xml</dc:format>
        <dc:type
           rdf:resource="http://purl.org/dc/dcmitype/StillImage" />
        <dc:title></dc:title>
      </cc:Work>
    </rdf:RDF>
  </metadata>
  <g
     inkscape:label="Layer 1"
     inkscape:groupmode="layer"
     id="layer1"
     transform="translate(-139.9637,-20.63967)">
    <g
       id="g1635">
      <g
         id="g1653"
         clip-path="url(#clipPath1657)">
        <path
           class="cls-6"
           d="m 169.56478,83.883155 c 6.77203,0 9.35341,-5.29977 9.35341,-5.29977 h -18.71996 c 0,0 2.59125,5.29977 9.36655,5.29977 z"
           id="svg_100"
           style="fill:#dbdaff;fill-opacity:1;stroke-width:0.313763" />
        <path
           class="cls-13"
           d="m 179.26304,78.583385 c 0,0 -2.58139,5.29977 -9.35342,5.29977 -6.77203,0 -9.36654,-5.29977 -9.36654,-5.29977 0,0 -19.04837,39.748335 -0.32843,60.653685 h 19.35381 c 18.7101,-20.90535 -0.30542,-60.653685 -0.30542,-60.653685 z"
           fill="#56ff56"
           id="svg_99"
           stroke="#000000"
           stroke-opacity="0"
           style="fill:#3f4d79;fill-opacity:1;stroke:#ffb000;stroke-width:0.313763;stroke-opacity:0" />
        <path
           class="cls-19"
           d="m 187.05972,113.97019 c -10.52915,0.17087 -22.98941,3.64211 -32.57928,15.88735"
           id="svg_101"
           style="fill:none;stroke:#f5ebdd;stroke-width:1.25505px;stroke-linecap:round;stroke-linejoin:round" />
        <path
           class="cls-19"
           d="m 152.79564,104.24294 c 7.06761,-1.57374 20.45074,-3.07256 33.42333,-0.2548"
           id="svg_102"
           style="fill:none;stroke:#f5ebdd;stroke-width:1.25505px;stroke-linecap:round;stroke-linejoin:round" />
        <path
           class="cls-19"
           d="m 186.15986,124.17407 c -4.70955,0.051 -13.41596,4.92207 -12.45698,14.73926"
           id="svg_103"
           style="fill:none;stroke:#f5ebdd;stroke-width:1.25505px;stroke-linecap:round;stroke-linejoin:round" />
        <path
           class="cls-20"
           d="m 168.37918,82.120565 c -0.16226,-3.51755 -1.03496,-15.649775 -5.46436,-25.384095 -0.9495,-2.08671 -2.06244,-4.06321 -3.36685,-5.82104"
           id="svg_104"
           sodipodi:nodetypes="csc"
           style="fill:none;stroke:#3f4d79;stroke-width:1.25505px;stroke-linecap:round;stroke-miterlimit:10;stroke-opacity:1" />
        <ellipse
           class="cls-6"
           cx="18.349463"
           cy="163.53004"
           id="svg_105"
           rx="3.1510253"
           ry="14.646479"
           transform="matrix(0.5428563,-0.8398256,0.88045626,0.47412739,0,0)"
           style="fill:#3f4d79;fill-opacity:1;stroke-width:0.314264" />
        <path
           class="cls-1"
           d="m 139.68183,42.081461 c 0.74552,-1.5138 4.25304,-1.62471 8.51594,-0.46464 -2.62737,-4.289578 -3.432,-8.279398 -1.69465,-9.307578 1.73733,-1.02818 5.40908,1.24701 8.63088,5.19486 0.56817,-4.02579 2.10517,-6.89451 3.94104,-6.91249 2.31865,0 4.21691,4.66728 4.2399,10.440678 a 28.122616,25.668557 0 0 1 -0.47949,4.922079 6.673497,6.0911489 0 0 0 -9.45193,5.47065 28.283541,25.81544 0 0 1 -4.95258,-1.56476 c -5.79004,-2.36511 -9.69824,-5.84534 -8.74911,-7.778799 z"
           id="svg_107"
           style="fill:#ffb000;fill-opacity:1;stroke-width:0.313763" />
        <path
           class="cls-6"
           d="m 156.40826,46.38903 a 6.6636444,6.082156 0 0 1 6.41077,-0.42866 c -0.56489,2.68285 -1.58627,4.67328 -2.81456,5.32076 -1.16918,0.77638 -3.64547,0.80637 -6.63737,0.14988 a 6.673497,6.0911489 0 0 1 3.04116,-5.04198 z"
           id="svg_108"
           style="fill:#3f4d79;fill-opacity:1;stroke-width:0.313763" />
        <path
           class="cls-20"
           d="m 170.84234,81.862775 c 0.90644,-4.71824 5.62583,-27.850825 13.1795,-40.938404"
           id="svg_109"
           style="fill:none;fill-opacity:1;stroke:#3f4d79;stroke-width:1.25505px;stroke-linecap:round;stroke-miterlimit:10;stroke-opacity:1" />
        <ellipse
           class="cls-6"
           cx="-10.595279"
           cy="204.25301"
           id="svg_110"
           rx="2.9412713"
           ry="17.925873"
           transform="matrix(0.33448384,-0.94240149,0.95895739,0.28355021,0,0)"
           style="fill:#3f4d79;fill-opacity:1;stroke-width:0.313989" />
        <path
           class="cls-1"
           d="m 182.59978,20.645536 c 1.81287,-0.14988 3.6389,2.586937 4.62087,6.546777 2.79814,-4.19666 6.22028,-6.792587 8.05615,-5.914287 1.83587,0.8783 1.46146,4.913087 -0.7291,9.412507 4.12496,-1.51979 7.6292,-1.71164 8.53893,-0.26679 1.1429,1.84053 -2.38762,5.6445 -7.88208,8.492228 a 28.208004,25.746494 0 0 1 -4.92631,2.03239 6.6767812,6.0941464 0 0 0 -9.8526,-4.835148 28.644803,26.145177 0 0 1 -0.936,-4.70925 c -0.60758,-5.74942 0.80135,-10.566587 3.11014,-10.758427 z"
           fill="#56ff56"
           id="svg_111"
           style="fill:#ffb000;fill-opacity:1;stroke-width:0.313763" />
        <path
           class="cls-6"
           d="m 186.69518,36.059263 a 6.673497,6.0911489 0 0 1 3.55679,4.889098 c -2.84083,0.86631 -5.25472,1.03118 -6.46331,0.3717 -1.31368,-0.54856 -2.55839,-2.506 -3.39914,-5.206848 a 6.6669286,6.0851536 0 0 1 6.30566,-0.0539 z"
           id="svg_112"
           style="fill:#3f4d79;fill-opacity:1;stroke-width:0.313763" />
        <path
           class="cls-1"
           d="m 202.18019,48.08867 v 0.024 a 6.6800653,6.097144 0 0 0 3.98045,11.59177 v 0.024 c -8.65387,2.47303 -16.56223,1.8735 -17.66572,-1.34294 -1.10349,-3.21644 5.0314,-7.82376 13.68527,-10.29681 z"
           id="svg_113"
           style="fill:#ffb000;fill-opacity:1;stroke-width:0.313763" />
        <path
           class="cls-2"
           d="m 200.12099,58.16964 a 3.2415067,2.9586437 0 0 0 -1.94753,-5.62652 6.6800653,6.097144 0 0 1 4.0133,-4.43047 l 3.98045,11.59177 a 6.6833497,6.1001417 0 0 1 -6.04622,-1.53478 z"
           id="svg_114"
           style="fill:#dbdaff;fill-opacity:1;stroke-width:0.313763" />
        <path
           class="cls-6"
           d="m 201.99299,54.54253 a 3.2415067,2.9586437 0 0 1 -1.872,3.62711 6.6800653,6.097144 0 0 1 -1.94753,-5.62652 3.2447908,2.9616413 0 0 1 3.81953,1.99941 z"
           id="svg_115"
           style="fill:#3f4d79;fill-opacity:1;stroke-width:0.313763" />
      </g>
    </g>
  </g>
</svg>
